<?xml version="1.0" encoding="utf-8"?>
<!-- Generator: Adobe Illustrator 28.4.1, SVG Export Plug-In . SVG Version: 6.00 Build 0)  -->
<svg version="1.1" id="Layer_1" xmlns="http://www.w3.org/2000/svg" xmlns:xlink="http://www.w3.org/1999/xlink" x="0px" y="0px"
	 viewBox="0 0 141.7 141.7" style="enable-background:new 0 0 141.7 141.7;" xml:space="preserve">
<style type="text/css">
	.st0{fill:#383838;}
</style>
<path class="st0" d="M105.8,99c-1.3-5.5-2.6-11-4-16.5l-0.3-1.2c-1.9-8-3.8-15.9-5.8-23.9c0-0.1,0-0.1,0-0.2c0,0,0.1-0.1,0.2-0.1
	c1.7-0.9,3.3-1.9,4.6-2.9c1.6-1.3,2.5-3.2,2.5-5.5l0-1.5c0-2-0.1-4.1,0.1-6.1c0.3-3.5-1.3-6.2-4.7-8.3c-3.9-2.3-8.2-3.4-11.5-4
	c-6.5-1.3-13.4-1.7-20.6-1.3c-6.6,0.4-11.9,1.2-16.8,2.8c-2.6,0.8-5.6,2-8.1,4.2c-1.7,1.5-2.5,3.3-2.5,5.3c0,3,0,6,0,9
	c0,2.3,0.7,4,2.2,5.2c1.3,1,2.9,2.1,4.9,3.2c0.1,0,0.1,0.1,0.1,0.1c0,0,0,0,0,0.1c-0.8,3.2-1.6,6.5-2.4,9.8l-2,8.2
	C39.8,83.1,37.8,91,36,99c-0.3,1.4-0.1,2.7,0.6,3.6c0.8,1,2,1.5,3.4,1.6c0.6,0,1.2,0,1.8,0c0.5,0,0.9,0,1.4,0c2.9,0,4.3-1,4.9-3.9
	c1.3-5.5,2.6-11.1,4-16.6l1.4-5.9c1.4-5.8,2.8-11.6,4.2-17.4c0.6,0.1,1.3,0.2,1.9,0.3l0.3,0c1.4,0.1,2.7,0.3,4.1,0.4l0.7,0.1l0,37.8
	c0,3.6,0,7.2,0,10.9c0,2.8,1.7,4.5,4.5,4.5l2.8,0c0,0,0,0,0,0c1.6,0,2.8-0.4,3.6-1.2c0.8-0.8,1.2-2,1.2-3.6V61.2l1.9-0.2
	c1.7-0.2,3.4-0.4,5.1-0.6c1.7,7.2,3.4,14.3,5.2,21.5l1.1,4.7c1.1,4.7,2.3,9.5,3.4,14.2c0.5,2.2,1.9,3.3,4.2,3.4c1.3,0,2.6,0,3.9,0
	c1.4,0,2.5-0.6,3.3-1.6C105.9,101.6,106.1,100.3,105.8,99z M44.1,99.4c-0.1,0.3-0.1,0.5-0.2,0.6c-0.2,0-0.5,0-0.6,0l-0.6,0
	c-0.9,0-1.7,0-2.6,0c-0.1,0-0.1,0-0.2,0c0,0,0-0.1,0-0.2c2-8.2,4-16.4,5.9-24.7c1.1-4.4,2.1-8.9,3.2-13.3l0.8-3.1l3.7,1
	c0,0.3-0.1,0.5-0.2,0.8C50.4,73.4,47.2,86.4,44.1,99.4z M97.5,41.4c-2.3,1.9-5.1,2.9-7.6,3.5c-8.8,2.4-18.3,3-29,1.7
	c-5.6-0.6-9.7-1.7-13.3-3.3c-1.4-0.6-2.6-1.5-3.7-2.4c-0.6-0.5-0.9-1.1-0.9-1.6c0-0.7,0.6-1.4,1.1-1.8c1.9-1.7,4.3-2.6,6.6-3.4
	c7.1-2.3,14.4-2.7,20-2.7c8.8,0.1,15,1,20.8,2.8c2,0.6,4.2,1.5,6.1,3.1c0.9,0.7,1.3,1.4,1.3,2.1C98.8,40,98.3,40.7,97.5,41.4z
	 M42.9,48.2c0.1-0.9,0.1-1.7,0.1-2.6c6.7,4,14,5,20.9,5.5c4.7,0.3,9.6,0.3,14.6,0c7.7-0.5,13.7-2,18.8-4.6c0.5-0.3,1-0.5,1.4-0.8
	v0.5c0,0.2,0,0.4,0,0.5c0,0.5,0,1,0,1.5c0.2,1.6-0.4,2.7-2.2,3.9c-2.4,1.6-5.3,2.7-9.2,3.5C76,58,64.6,57.9,53.5,55.4
	c-3.5-0.8-6.1-1.8-8.4-3.3C43.4,50.9,42.8,49.8,42.9,48.2z M91.8,58.7l0.1,0.3c0.3,1,0.5,2.1,0.8,3.1l9,37.4
	c0.1,0.2,0.1,0.4,0.1,0.5c-0.1,0-0.3,0-0.5,0c-0.3,0-0.6,0-0.9,0c-0.7,0-1.4,0-2.1,0c-0.4,0-0.5,0-0.6-0.5c-0.9-3.7-1.7-7.4-2.6-11
	L93.9,84C92,75.9,90,67.8,88.1,59.7L91.8,58.7z M69.1,110.3c-0.1,0-0.1,0-0.1,0c0,0,0-0.1,0-0.2c0-0.4,0-0.7,0-1.1l0-28.2l0-19.2
	c0-0.1,0-0.1,0-0.2c0.1,0,0.1,0,0.2,0l0.7,0c1,0,1.9,0,2.9,0c0,0.1,0,0.2,0,0.3l0,0.2l0,47.3c0,0.2,0,0.8,0,1.1c-0.3,0-0.9,0-1.1,0
	l-0.7,0c-0.3,0-0.7,0-1,0C69.6,110.3,69.4,110.3,69.1,110.3C69.1,110.3,69.1,110.3,69.1,110.3z"/>
</svg>
