<?xml version="1.0" encoding="utf-8"?>
<!-- Generator: Adobe Illustrator 28.4.1, SVG Export Plug-In . SVG Version: 6.00 Build 0)  -->
<svg version="1.1" id="Layer_1" xmlns="http://www.w3.org/2000/svg" xmlns:xlink="http://www.w3.org/1999/xlink" x="0px" y="0px"
	 viewBox="0 0 226.8 226.8" style="enable-background:new 0 0 226.8 226.8;" xml:space="preserve">
<path d="M222.1,150.2c-0.2-2.8-2.7-4.1-2.8-4.2c-0.7-0.3-1.4-0.6-2.1-1c0.2-0.4,0.4-0.9,0.5-1.4c2.8-9.8,4.3-20,4.3-30.3
	C222,53.5,173.3,4.8,113.4,4.8S4.8,53.5,4.8,113.4S53.5,222,113.4,222c20.6,0,40.6-5.8,57.9-16.7c5.5-3.5,7.1-10.7,3.6-16.1
	c-3.5-5.5-10.7-7.1-16.1-3.6c-13.6,8.6-29.3,13.1-45.4,13.1c-47,0-85.2-38.2-85.2-85.2c0-47,38.2-85.2,85.2-85.2
	s85.2,38.2,85.2,85.2c0,7.6-1,15.1-3,22.3c-0.6-0.2-1.1-0.4-1.4-0.5c-1.5-0.4-2.8-0.2-2.8-0.2c-1,0.1-1.8,0.4-2.3,0.6
	c-1.8,0.7-2.3,2.7-2.1,4.6l2.7,25.9c0.2,1.9,1.5,3.1,2.8,4.2c1.9,0.4,3.8,0.3,5.1-0.4l22.4-15.1
	C220.1,154.7,222.4,153.1,222.1,150.2z"/>
</svg>
